<?xml version="1.0" encoding="utf-8"?>
<!-- Generator: Adobe Illustrator 16.0.0, SVG Export Plug-In . SVG Version: 6.00 Build 0)  -->
<!DOCTYPE svg PUBLIC "-//W3C//DTD SVG 1.1//EN" "http://www.w3.org/Graphics/SVG/1.1/DTD/svg11.dtd">
<svg version="1.1" id="Layer_1" xmlns="http://www.w3.org/2000/svg" xmlns:xlink="http://www.w3.org/1999/xlink" x="0px" y="0px"
	 width="826.459px" height="488.976px" viewBox="0 0 826.459 488.976" enable-background="new 0 0 826.459 488.976"
	 xml:space="preserve">
<g>
	<g opacity="0.5">
		<polygon fill="#939598" points="534.934,73.277 411.894,126.403 443.562,138.071 496.312,123.317 496.312,353.125 
			397.116,322.989 398.193,183.726 376.802,175.404 376.802,340.825 534.934,400.412 		"/>
		<g>
			<path fill="#939598" d="M532.662,69.392c-41.001,17.703-82.003,35.407-123.004,53.11c-0.012,0.006-0.024,0.011-0.036,0.016
				c-3.955,1.708-2.115,7.05,1.075,8.225c7.819,2.882,15.639,5.763,23.458,8.644c2.737,1.008,5.475,2.017,8.211,3.024
				c1.914,0.705,5.131-0.766,6.938-1.271c16.068-4.494,32.136-8.988,48.204-13.482c-1.898-1.446-3.798-2.893-5.696-4.339
				c0,47.383,0,94.766,0,142.148c0,29.22,0,58.439,0,87.659c1.898-1.446,3.798-2.893,5.696-4.339
				c-33.065-10.046-66.131-20.091-99.196-30.136c1.102,1.446,2.202,2.893,3.304,4.339c0.357-46.17,0.714-92.341,1.071-138.511
				c0.002-0.251,0.004-0.502,0.006-0.753c0.017-2.155-1.421-3.606-3.304-4.339c-7.131-2.774-14.261-5.548-21.392-8.321
				c-2.776-1.08-5.696,1.641-5.696,4.339c0,49.575,0,99.149,0,148.725c0,5.565,0,11.131,0,16.696c0,2.143,1.404,3.623,3.304,4.339
				c46.576,17.551,93.152,35.102,139.729,52.653c6.134,2.311,12.268,4.622,18.402,6.934c2.782,1.049,5.696-1.617,5.696-4.339
				c0-39.538,0-79.077,0-118.615c0-59.658,0-119.316,0-178.974c0-9.849,0-19.697,0-29.546c0-5.804-9-5.804-9,0
				c0,39.538,0,79.077,0,118.615c0,59.658,0,119.316,0,178.974c0,9.849,0,19.697,0,29.546c1.898-1.446,3.798-2.893,5.696-4.339
				c-46.576-17.551-93.152-35.102-139.729-52.652c-6.134-2.312-12.269-4.623-18.402-6.935c1.102,1.446,2.202,2.893,3.304,4.339
				c0-49.575,0-99.149,0-148.725c0-5.565,0-11.131,0-16.696c-1.898,1.446-3.798,2.893-5.696,4.339
				c7.131,2.774,14.261,5.548,21.392,8.321c-1.102-1.446-2.202-2.893-3.304-4.339c-0.357,46.17-0.714,92.341-1.071,138.511
				c-0.002,0.251-0.004,0.502-0.006,0.753c-0.016,2.039,1.393,3.759,3.304,4.339c33.065,10.046,66.131,20.091,99.196,30.136
				c2.813,0.855,5.696-1.472,5.696-4.339c0-47.383,0-94.766,0-142.148c0-29.22,0-58.439,0-87.659c0-2.916-2.875-5.129-5.696-4.339
				c-15.673,4.383-31.346,8.767-47.018,13.15c-1.903,0.532-3.807,1.064-5.71,1.597c2.575-0.72,2.736,0.142,0.276-0.765
				c-2.039-0.751-4.078-1.503-6.117-2.254c-7.819-2.881-15.639-5.762-23.458-8.643c0.358,2.741,0.717,5.482,1.075,8.225
				c41.001-17.704,82.002-35.407,123.004-53.11c0.012-0.006,0.023-0.011,0.036-0.016C542.521,74.868,537.932,67.116,532.662,69.392z
				"/>
		</g>
	</g>
	<g opacity="0.4">
		<polygon fill="#76B4E3" points="280.695,87.699 433.812,151.404 433.812,317.738 415.164,312.366 418.229,171.07 321.562,132.404 
			317.616,370.55 374.541,356.18 411.496,370.888 280.695,415.697 		"/>
		<g>
			<path fill="#76B4E3" d="M278.943,94.053c45.888,19.092,91.774,38.184,137.662,57.275c5.151,2.144,10.303,4.287,15.454,6.43
				c-1.612-2.117-3.225-4.235-4.838-6.354c0,49.679,0,99.356,0,149.035c0,5.767,0,11.532,0,17.299
				c2.781-2.118,5.562-4.236,8.342-6.354c-6.216-1.791-12.432-3.582-18.647-5.372c1.612,2.117,3.225,4.235,4.837,6.354
				c1.013-46.663,2.025-93.326,3.037-139.989c0.01-0.436,0.02-0.871,0.029-1.307c0.068-3.168-2.118-5.267-4.838-6.354
				c-32.223-12.889-64.445-25.777-96.667-38.666c-4.104-1.642-8.276,2.45-8.341,6.354c-0.773,46.644-1.546,93.287-2.319,139.931
				c-0.542,32.738-1.085,65.477-1.627,98.215c-0.073,4.363,4.252,7.386,8.341,6.354c17.539-4.428,35.079-8.855,52.619-13.283
				c1.188-0.3,2.376-0.6,3.564-0.899c2.611-0.659-4.31-0.803-2.292,0c3.886,1.547,7.771,3.093,11.657,4.64
				c8.275,3.294,16.552,6.588,24.827,9.881c0-4.235,0-8.472,0-12.707c-43.411,14.871-86.823,29.743-130.235,44.615
				c-0.188,0.064-0.377,0.129-0.565,0.194c2.78,2.117,5.561,4.235,8.341,6.354c0-39.512,0-79.023,0-118.535
				c0-59.782,0-119.563,0-179.346c0-10.039,0-20.078,0-30.117c0-8.498-13.178-8.498-13.178,0c0,39.512,0,79.023,0,118.535
				c0,59.782,0,119.563,0,179.346c0,10.039,0,20.078,0,30.117c0,4.084,4.242,7.758,8.341,6.354
				c43.411-14.871,86.823-29.743,130.235-44.615c0.188-0.064,0.377-0.129,0.565-0.194c6.497-2.226,6.015-10.313,0-12.707
				c-8.276-3.294-16.552-6.588-24.827-9.882c-3.886-1.546-7.771-3.093-11.657-4.64c-2.339-0.931-4.944,0.058-7.263,0.644
				c-17.879,4.513-35.758,9.026-53.637,13.54c2.78,2.117,5.561,4.235,8.341,6.354c0.773-46.644,1.546-93.287,2.319-139.931
				c0.542-32.738,1.085-65.477,1.627-98.215c-2.78,2.118-5.561,4.236-8.341,6.354c32.223,12.889,64.445,25.777,96.667,38.666
				c-1.612-2.117-3.225-4.235-4.838-6.354c-1.012,46.663-2.024,93.326-3.036,139.989c-0.01,0.436-0.02,0.871-0.028,1.307
				c-0.064,2.947,2.062,5.555,4.837,6.354c6.216,1.791,12.432,3.582,18.647,5.372c4.128,1.189,8.342-2.108,8.342-6.354
				c0-49.679,0-99.356,0-149.035c0-5.767,0-11.532,0-17.299c0-3.213-2.08-5.206-4.838-6.354
				c-45.888-19.092-91.774-38.184-137.662-57.275c-5.151-2.144-10.303-4.287-15.454-6.43c-3.323-1.383-7.243,1.466-8.105,4.602
				C273.298,89.74,275.63,92.675,278.943,94.053z"/>
		</g>
	</g>
	<rect x="209.896" y="219.364" fill="none" width="406.666" height="54.96"/>
	
		<text transform="matrix(1 0 0 1 214.7725 271.7803)" opacity="0.9" fill="#2E3192" font-family="'ArialRoundedMTBold'" font-size="72">CourseFlex</text>
</g>
</svg>
